# xmcd
#
# Track frame offsets:
#	150
#	16319
#	28632
#	47620
#	62041
#	78952
#	91220
#	104956
#	128401
#	147181
#	164642
#
# Disc length: 2363 seconds
#
# Revision: 0
# Processed by: cddbd v1.4PL0 Copyright (c) Steve Scherf et al.
# Submitted via: audiograbber 1.81.02
#
DISCID=8c09390b
DTITLE=Long Distance Call Blues - Long Distance Call Blues
DYEAR=2002
DGENRE=Blues
TTITLE0=Blues Revive
TTITLE1=It's Too Late
TTITLE2=Jamming
TTITLE3=Long Distance Call Blues
TTITLE4=Red Letter Day
TTITLE5=Moline Street Blues
TTITLE6=Take To The Road
TTITLE7=Rustle In My Mind
TTITLE8=Jazzin' The Blues
TTITLE9=Storehouse Blues
TTITLE10=Real Boogie
EXTD=Recorded at 18,19,20 Oct. 2002\nat ARTRACKS Studio\nGarefi 23 Street\nN. P
EXTD=sychiko , ATHENS\n\nChief/ studio Manager - Giorgos Panagiotakis\n\nMusici
EXTD=ans :\nThanasis Papapolitis  GUITAR\nDimitrios Antoniades   DRUMS\nMarios 
EXTD=Marouskos      BASS\n\nAll Songs Written By Thanasis Papapolitis (thpapapa
EXTD=pol@freemail.gr]\n
EXTT0=Written By Thanasis Papapolitis (thpapapapol@freemail.gr]\n
EXTT1=Written By Thanasis Papapolitis (thpapapapol@freemail.gr)
EXTT2=Written By Thanasis Papapolitis (thpapapapol@freemail.gr)
EXTT3=Written By Thanasis Papapolitis (thpapapapol@freemail.gr)
EXTT4=Written By Thanasis Papapolitis (thpapapapol@freemail.gr)
EXTT5=Written By Thanasis Papapolitis (thpapapapol@freemail.gr)
EXTT6=Written By Thanasis Papapolitis (thpapapapol@freemail.gr)
EXTT7=Written By Thanasis Papapolitis (thpapapapol@freemail.gr)
EXTT8=Written By Thanasis Papapolitis (thpapapapol@freemail.gr)
EXTT9=Written By Thanasis Papapolitis (thpapapapol@freemail.gr)
EXTT10=Written By Thanasis Papapolitis (thpapapapol@freemail.gr)
PLAYORDER=
